HIERARCHY
ROOT Hips
{
	OFFSET -0.179506 -22.333345 2.821913
	CHANNELS 6 Xposition Yposition Zposition Zrotation Yrotation Xrotation 
	JOINT LeftUpLeg
	{
		OFFSET 6.951974 -9.140623 -0.681533
		CHANNELS 3 Zrotation Yrotation Xrotation
		JOINT LeftLeg
		{
			OFFSET 3.427654 -37.519855 -0.449580
			CHANNELS 3 Zrotation Yrotation Xrotation
			JOINT LeftFoot
			{
				OFFSET -1.359570 -39.796059 -4.369333
				CHANNELS 3 Zrotation Yrotation Xrotation
				JOINT LeftToe
				{
					OFFSET 2.635814 -5.579078 11.928840
					CHANNELS 3 Zrotation Yrotation Xrotation
					End Site
					{
						OFFSET 0.000000 0.000000 0.000000
					}
				}
			}
		}
	}
	JOINT RightUpLeg
	{
		OFFSET -6.767048 -9.052170 -0.431982
		CHANNELS 3 Zrotation Yrotation Xrotation
		JOINT RightLeg
		{
			OFFSET -3.829005 -38.256897 -0.885003
			CHANNELS 3 Zrotation Yrotation Xrotation
			JOINT RightFoot
			{
				OFFSET 1.577377 -39.841461 -4.231180
				CHANNELS 3 Zrotation Yrotation Xrotation
				JOINT RightToe
				{
					OFFSET -2.537174 -4.814398 12.334795
					CHANNELS 3 Zrotation Yrotation Xrotation
					End Site
					{
						OFFSET 0.000000 0.000000 0.000000
					}
				}
			}
		}
	}
	JOINT Spine
	{
		OFFSET -0.253288 10.896323 -2.669631
		CHANNELS 3 Zrotation Yrotation Xrotation
		JOINT Spine1
		{
			OFFSET 0.548704 13.518043 0.109247
			CHANNELS 3 Zrotation Yrotation Xrotation
			JOINT Spine2
			{
				OFFSET 0.145701 5.292222 2.542457
				CHANNELS 3 Zrotation Yrotation Xrotation
				JOINT Neck
				{
					OFFSET -0.277840 21.387037 -4.285703
					CHANNELS 3 Zrotation Yrotation Xrotation
					JOINT Head
					{
						OFFSET 0.515184 6.496960 5.134897
						CHANNELS 3 Zrotation Yrotation Xrotation
						End Site
						{
							OFFSET 0.000000 0.000000 0.000000
						}
					}
				}
				JOINT LeftShoulder
				{
					OFFSET 7.884473 12.174932 -3.408961
					CHANNELS 3 Zrotation Yrotation Xrotation
					JOINT LeftArm
					{
						OFFSET 9.097692 3.046888 -0.886815
						CHANNELS 3 Zrotation Yrotation Xrotation
						JOINT LeftForeArm
						{
							OFFSET 25.961220 -1.277207 -2.745643
							CHANNELS 3 Zrotation Yrotation Xrotation
							JOINT LeftHand
							{
								OFFSET 24.923361 0.898606 -0.117091
								CHANNELS 3 Zrotation Yrotation Xrotation
								End Site
								{
									OFFSET 0.000000 0.000000 0.000000
								}
							}
						}
					}
				}
				JOINT RightShoulder
				{
					OFFSET -8.175920 11.883285 -3.861528
					CHANNELS 3 Zrotation Yrotation Xrotation
					JOINT RightArm
					{
						OFFSET -9.601238 3.255117 -0.914307
						CHANNELS 3 Zrotation Yrotation Xrotation
						JOINT RightForeArm
						{
							OFFSET -25.374195 -1.332924 -2.140099
							CHANNELS 3 Zrotation Yrotation Xrotation
							JOINT RightHand
							{
								OFFSET -25.529810 0.777228 -0.555919
								CHANNELS 3 Zrotation Yrotation Xrotation
								End Site
								{
									OFFSET 0.000000 0.000000 0.000000
								}
							}
						}
					}
				}
			}
		}
	}
}
MOTION
Frames: 10
Frame Time: 0.033333
49.539253 9.884135 11.090466 -102.867145 -4.914424 179.791683 -1.158951 -7.825407 -6.899465 -8.874700 -11.779077 17.104103 -0.979213 2.465698 -8.589702 nan nan nan -4.870917 2.674791 -9.488251 5.867399 3.181681 21.270241 6.015434 2.545483 -9.059303 nan nan nan 0.296369 -0.343616 0.075805 2.766714 -3.295697 6.161473 -0.543210 -1.288633 -4.129130 7.540133 -18.729584 -15.075260 15.884402 -15.483406 -25.653607 -20.020536 11.604664 3.083279 -44.649980 7.417623 0.007438 152.234898 -36.912441 -118.400427 33.359186 -32.631446 -8.266823 17.954590 -9.678811 1.784669 36.225829 -8.861231 -14.300998 -154.686738 40.662252 -125.743422 -28.340022 28.033177 -0.789834 
49.533623 9.902296 11.077428 -102.813338 -4.936897 179.770906 -1.104843 -7.756206 -6.860778 -8.748610 -11.572075 17.057007 -0.918279 2.243590 -8.629496 nan nan nan -4.811536 2.563596 -9.430170 5.800577 3.021105 21.179961 5.900077 2.872782 -8.854800 nan nan nan 0.258512 -0.434237 0.151931 2.877843 -3.281149 6.059201 -0.495776 -1.234394 -4.062600 7.606386 -18.750486 -15.274534 15.879856 -15.668929 -25.718263 -20.262981 11.634764 3.147452 -44.474116 7.368556 0.082834 152.112449 -36.804195 -118.537638 33.334131 -33.016858 -8.386881 18.176278 -9.692414 1.815815 35.857709 -8.829972 -14.427580 -154.650283 40.376683 -125.551945 -28.091957 28.360153 -0.223682 
49.534435 9.913647 11.061173 -102.764862 -4.978820 179.696269 -1.007840 -7.771992 -6.771740 -8.791642 -11.520468 16.979448 -0.879771 2.013554 -8.314430 nan nan nan -4.768366 2.578655 -9.343307 5.824732 2.909636 21.157756 5.842841 3.056855 -8.667084 nan nan nan 0.272486 -0.444797 0.163400 2.892426 -3.227108 6.132843 -0.482275 -1.204606 -4.015425 7.628189 -18.810658 -15.396856 16.003955 -15.935186 -25.841438 -20.223661 11.566244 3.182166 -44.644885 7.240790 0.181903 152.069943 -36.731850 -118.966817 31.807802 -33.047300 -7.694527 18.167465 -9.708858 1.896630 36.147541 -9.249861 -14.106610 -154.354103 40.808796 -125.992384 -25.495050 26.911467 -0.675380 
49.533981 9.922524 11.052906 -102.726285 -5.055655 179.663620 -0.950461 -7.737573 -6.731745 -8.832136 -11.639917 16.943565 -0.911907 1.953511 -8.331878 nan nan nan -4.718681 2.556096 -9.308877 5.832327 2.880549 21.151733 5.813779 3.012272 -8.873325 nan nan nan 0.281419 -0.465417 0.201237 2.916104 -3.230189 6.053804 -0.475587 -1.211964 -3.975397 7.624860 -19.012900 -15.367795 16.041313 -16.050493 -25.806553 -20.178219 11.583662 3.229274 -44.673902 7.181018 0.235013 152.111895 -36.861999 -119.068150 31.983762 -33.017088 -7.956028 18.137767 -9.742930 1.845388 36.123336 -9.222380 -14.120380 -154.366461 40.919822 -125.962056 -25.792676 26.900676 -0.746068 
49.552212 9.943816 11.046923 -102.681226 -4.993498 179.632733 -0.867241 -7.501777 -6.786302 -8.737619 -11.337894 17.139447 -1.202010 1.169669 -8.242697 nan nan nan -4.681395 2.752629 -9.290591 5.697153 2.492974 21.223731 5.871801 3.386730 -9.152861 nan nan nan 0.425569 -0.439690 0.014334 2.774766 -3.216323 7.635390 -0.571658 -1.382550 -5.548731 7.859851 -17.523783 -15.058847 15.828394 -17.534329 -25.793441 -20.341880 11.601463 2.944002 -43.316886 7.817677 -2.440393 150.344475 -35.829671 -114.595669 23.374913 -35.313655 0.907301 18.743883 -8.828496 3.140094 36.396043 -9.579998 -14.139117 -153.240577 39.541141 -123.815403 -23.103645 27.735925 0.187473 
49.553295 9.912245 11.033612 -102.660134 -5.096471 179.610074 -0.660041 -7.838221 -6.754347 -9.902757 -13.240517 18.140100 -2.037294 -0.160762 -12.459600 nan nan nan -4.675666 2.751262 -9.171031 5.637141 2.242973 21.136243 6.187088 3.660734 -9.100391 nan nan nan 0.211956 -0.521754 0.031968 2.798832 -3.223592 7.182247 -0.825409 -1.651760 -5.113113 8.394104 -17.318021 -14.292434 16.396623 -17.487169 -25.714011 -18.781850 12.464876 3.543826 -44.709950 6.809083 -3.091146 151.003949 -36.358194 -116.010045 23.452412 -36.521715 1.420241 17.186335 -10.273172 2.725695 38.301164 -8.442808 -15.600527 -155.350704 42.389191 -127.662481 -23.928893 28.804844 0.724185 
49.559227 9.900878 11.025773 -102.647267 -5.050581 179.547734 -0.635606 -7.879032 -6.730191 -9.875631 -13.116784 18.202185 -2.178673 -0.202047 -12.510633 nan nan nan -4.641374 2.741895 -9.090696 5.610381 2.204215 21.164533 6.294556 3.743360 -9.051178 nan nan nan 0.179385 -0.461220 -0.031272 2.852938 -3.245420 7.435701 -0.848752 -1.678140 -5.239073 8.332557 -17.367272 -14.136750 16.424057 -17.826825 -25.579860 -18.608448 12.499232 3.664136 -44.739040 6.759453 -3.156003 150.986686 -36.359756 -116.234331 23.470021 -36.639127 1.613471 17.341172 -10.226498 2.853206 38.173541 -8.449714 -15.548928 -155.364112 42.406676 -128.014858 -24.144723 29.001187 1.004384 
49.559803 9.892104 11.033429 -102.632463 -5.030050 179.531135 -0.602477 -7.858122 -6.743672 -9.855871 -13.042911 18.216900 -2.193371 -0.124437 -12.543678 nan nan nan -4.597137 2.752562 -9.097439 5.608263 2.243348 21.226464 6.322955 3.711671 -9.079485 nan nan nan 0.155727 -0.447409 -0.045796 2.875112 -3.248169 7.470710 -0.838383 -1.691849 -5.245716 8.367749 -17.548737 -14.101293 16.447288 -18.025905 -25.581490 -18.543072 12.520743 3.652023 -44.714306 6.799860 -3.149968 150.967660 -36.356313 -116.252744 23.470654 -36.550717 1.593001 17.319857 -10.186368 2.822101 38.152686 -8.484664 -15.403576 -155.247326 42.433727 -128.006710 -24.226400 28.736033 0.708062 
49.560619 9.878163 11.045049 -102.625460 -5.022840 179.541106 -0.588588 -7.823725 -6.797942 -9.824344 -12.991900 18.233713 -2.205408 -0.012057 -12.479014 nan nan nan -4.569242 2.792322 -9.124768 5.608040 2.276199 21.256937 6.313991 3.683236 -9.155805 nan nan nan 0.117933 -0.443420 -0.054779 2.886773 -3.244616 7.398499 -0.805087 -1.684648 -5.242618 8.304180 -17.809855 -13.733590 16.583119 -17.943747 -25.788498 -18.499595 12.471370 3.771917 -44.692820 6.880149 -3.217769 151.074496 -36.373972 -116.326535 23.722485 -36.509120 1.262949 17.130990 -10.183462 2.820579 38.276734 -8.432080 -15.449324 -155.150841 42.464776 -128.015095 -24.771976 28.456825 0.165957 
49.557137 9.864579 11.052285 -102.610521 -5.029050 179.522887 -0.573368 -7.811014 -6.800856 -9.819889 -12.987986 18.227391 -2.236549 0.035236 -12.462431 nan nan nan -4.539346 2.834744 -9.072856 5.604640 2.298993 21.215968 6.363397 3.680765 -9.194013 nan nan nan 0.063698 -0.421199 -0.058177 2.930074 -3.236714 7.353632 -0.781856 -1.675925 -5.250578 8.345487 -18.068448 -13.375670 16.801941 -17.922648 -25.792617 -18.370823 12.491943 3.921881 -44.758054 6.800890 -3.225765 151.267242 -36.475103 -116.586053 23.794328 -36.552483 0.892322 16.996937 -10.264908 2.852960 38.303044 -8.346819 -15.511281 -155.101800 42.558494 -128.103636 -25.123096 28.342459 -0.128786 
